<svg xmlns="http://www.w3.org/2000/svg" viewBox="0 0 512 114.701" width="512" height="114.701"><path d="m 384.32567,29.253807 -0.50203,15.079058 c -17.60747,-1.206856 -22.63771,3.318025 -22.63771,18.094539 v 1.9067 H 346.09524 V 30.158118 h 15.09069 v 9.751269 c 4.52821,-7.940984 10.66556,-11.559892 23.13974,-10.65558 z M 25.152821,90.575756 H 40.243516 V 32.267624 H 25.152821 v 58.30647 z m 74.75197,-61.220547 c -10.564151,0 -17.002382,4.724362 -20.423472,9.950749 V 7.1380751 H 0 V 21.21142 h 65.396338 v 43.122684 h 14.385864 c 0,-12.364462 7.144724,-21.106693 15.896929,-21.106693 7.547009,0 10.966439,3.718648 10.966439,17.088825 v 30.25952 h 15.09069 V 54.888705 c 0,-17.088824 -8.7522,-25.533496 -21.831469,-25.533496 z M 159.26352,79.01254 c -9.15449,0 -15.09069,-5.528933 -16.09641,-14.676773 h -14.18638 c 1.408,16.084772 11.97215,27.445183 30.18305,27.445183 14.08498,0 22.03262,-6.333504 26.15854,-15.88363 l -12.77839,-5.630335 c -1.91169,5.730076 -5.43252,8.745555 -13.28041,8.745555 z m -0.60343,-49.35811 a 31.960091,31.960091 0 0 0 -15.49298,3.618907 l 7.2428,10.253295 c 2.71626,-1.406337 5.63533,-2.111168 8.75387,-2.011428 8.45132,0 12.77672,5.530595 13.38015,12.766748 h -14.58867 v 10.053815 h 28.77506 c 0.20114,-1.50774 0.30254,-2.91574 0.30254,-4.421817 0.0997,-21.916251 -14.38753,-30.25952 -28.37277,-30.25952 z m 149.4042,49.35811 c -9.15449,0 -15.09069,-5.528933 -16.09641,-14.676773 H 277.7815 c 1.408,16.084772 11.97215,27.445183 30.18305,27.445183 14.08498,0 22.03262,-6.333504 26.15854,-15.88363 L 321.3447,70.266985 c -2.01142,5.730076 -5.53225,8.745555 -13.28041,8.745555 z m -0.50202,-49.35811 a 31.960091,31.960091 0 0 0 -15.49465,3.618907 l 7.24447,10.253295 c 2.71626,-1.406337 5.63366,-2.111168 8.7522,-2.011428 8.45132,0 12.77839,5.530595 13.38182,12.766748 h -14.58867 v 10.053815 h 28.77505 c 0.20114,-1.50774 0.30088,-2.91574 0.30088,-4.421817 0.10141,-21.916251 -14.38752,-30.25952 -28.3711,-30.25952 z M 484.4316,79.01254 c -9.15449,0 -15.0907,-5.528933 -16.09641,-14.676773 h -14.18638 c 1.408,16.084772 11.97215,27.445183 30.18305,27.445183 14.08498,0 22.03261,-6.333504 26.15853,-15.88363 l -12.77838,-5.630335 c -2.01143,5.730076 -5.53226,8.745555 -13.28041,8.745555 z m -0.80457,-49.35811 a 31.958429,31.958429 0 0 0 -15.49298,3.618907 l 7.2428,10.253295 c 2.71792,-1.406337 5.63532,-2.111168 8.75387,-2.011428 8.45132,0 12.77672,5.530595 13.38015,12.766748 h -14.58701 v 10.053815 h 28.77339 c 0.20114,-1.50774 0.30255,-2.91574 0.30255,-4.421817 0.0997,-21.916251 -14.38753,-30.25952 -28.37277,-30.25952 z M 194.77935,0 221.92199,64.334104 h 16.50036 L 217.71794,13.169034 H 244.4799 V 0.10140256 L 194.77935,0.00166234 Z M 275.26638,0.09974022 244.17736,78.81306 239.54941,90.575756 h 15.79553 L 292.67105,0.10140256 H 275.26638 Z M 414.00669,89.167757 c 6.43823,0 11.77101,-1.810285 15.49298,-4.925505 l -6.03594,-9.550126 c -1.91169,0.804571 -4.02452,1.105454 -6.13735,1.105454 -8.25018,0 -12.97953,-4.925504 -14.58867,-11.460151 H 387.9479 c 2.01309,13.973605 12.07355,24.830328 26.05879,24.830328 z M 432.61822,38.60279 c -3.41943,-5.42753 -10.36301,-9.348983 -20.02119,-9.348983 -9.45703,-0.09974 -18.20924,5.026907 -22.83719,13.370176 l 12.57558,8.042386 c 2.31398,-4.825764 6.84218,-8.042386 13.7841,-8.042386 9.85932,0 16.4987,7.640101 16.4987,16.686539 0,1.710545 -0.20115,3.419427 -0.70317,5.026907 h 15.79552 V 30.25952 h -15.09235 z m -14.58701,64.23603 c -9.75958,0 -13.38181,-4.724366 -14.08664,-10.253298 H 389.5587 c 0.30088,10.555838 7.34421,22.115728 28.77339,22.115728 14.48727,0 23.94431,-7.23781 27.86908,-18.094535 l -13.58295,-4.724362 c -1.91169,7.036673 -7.14306,10.956467 -14.58701,10.956467 z" fill="#4902F4" /></svg>