<?xml version="1.0" encoding="UTF-8"?>
<!-- Generator: Adobe Illustrator 27.3.0, SVG Export Plug-In . SVG Version: 6.00 Build 0)  -->
<svg width="16rem"
  xmlns="http://www.w3.org/2000/svg"
  xmlns:xlink="http://www.w3.org/1999/xlink" version="1.1" id="Layer_1" x="0px" y="0px" viewBox="0 0 45.67 11.69" style="enable-background:new 0 0 45.67 11.69;" xml:space="preserve">
  <style type="text/css">
	.st0{fill-rule:evenodd;clip-rule:evenodd;fill:#FFD240;}
	.st1{fill:#21285F;}
	.st2{fill:#376EB6;}
	.st3{fill:#263B80;}
	.st4{fill:none;}
  </style>
  <g>
    <g>
      <path class="st0" d="M39.93,11.47H5.7c-1.07,0-1.07-11.26,0-11.26h34.23C41,0.21,41,11.47,39.93,11.47z"></path>
      <path class="st0" d="M45.56,5.84L45.56,5.84c0,3.11-2.52,5.63-5.63,5.63V0.21C43.04,0.21,45.56,2.73,45.56,5.84z"></path>
      <path class="st0" d="M5.7,11.47c-3.11,0-5.63-2.52-5.63-5.63c0-3.11,2.52-5.63,5.63-5.63V11.47z"></path>
      <path class="st1" d="M15.3,4.59c0.01-0.68-0.55-1.2-1.32-1.2h-1.6c-0.08,0-0.14,0.06-0.15,0.13l-0.64,4    c-0.01,0.04,0,0.07,0.03,0.1c0.02,0.03,0.06,0.04,0.1,0.04h0.95L12.51,8.6c-0.01,0.04,0,0.07,0.03,0.1    c0.02,0.03,0.06,0.04,0.1,0.04h0.77c0.04,0,0.07-0.01,0.1-0.04c0.03-0.02,0.03-0.06,0.04-0.09l0.23-1.33    c0.01-0.04,0.02-0.08,0.05-0.11c0.03-0.02,0.05-0.04,0.09-0.04h0.47c0.76,0,1.4-0.54,1.52-1.29C15.99,5.32,15.76,4.83,15.3,4.59    L15.3,4.59z"></path>
      <path class="st2" d="M12.86,6.19l-0.24,1.5l-0.15,0.94c-0.01,0.04,0,0.07,0.03,0.1c0.02,0.03,0.06,0.04,0.1,0.04h0.82    c0.08,0,0.14-0.06,0.15-0.13l0.22-1.36c0.01-0.08,0.08-0.13,0.15-0.13h0.48c0.76,0,1.4-0.55,1.52-1.3    c0.08-0.53-0.18-1.01-0.64-1.25c0,0.06-0.01,0.11-0.01,0.17c-0.12,0.75-0.76,1.3-1.52,1.3h-0.75C12.94,6.06,12.88,6.12,12.86,6.19    z"></path>
      <path class="st3" d="M12.63,7.69h-0.95c-0.04,0-0.07-0.02-0.1-0.04c-0.02-0.03-0.03-0.07-0.03-0.1l0.64-4.06    c0.01-0.08,0.08-0.13,0.15-0.13h1.63c0.77,0,1.33,0.56,1.32,1.24c-0.19-0.1-0.42-0.16-0.67-0.16h-1.36    c-0.08,0-0.14,0.06-0.15,0.13l-0.26,1.63L12.63,7.69L12.63,7.69z"></path>
      <polyline class="st4" points="10.66,8.78 16.53,8.78 16.53,2.9 10.66,2.9 10.66,8.78   "></polyline>
      <path class="st3" d="M32.27,6.13c0.02-0.15,0.08-0.27,0.17-0.35c0.09-0.08,0.21-0.13,0.35-0.13c0.14,0,0.26,0.04,0.34,0.13    c0.09,0.08,0.14,0.2,0.15,0.35H32.27z M33.18,7.57c0.12-0.03,0.23-0.08,0.32-0.13c0.09-0.06,0.17-0.12,0.24-0.2    c0.07-0.08,0.12-0.16,0.16-0.25c0.01-0.03,0.02-0.05,0.02-0.07c0-0.04-0.03-0.06-0.1-0.06h-0.5c-0.05,0-0.09,0.02-0.12,0.07    c-0.09,0.12-0.22,0.18-0.4,0.18c-0.15,0-0.28-0.05-0.38-0.15c-0.1-0.1-0.15-0.23-0.17-0.41h1.62c0.03,0,0.06-0.01,0.08-0.03    c0.02-0.02,0.03-0.04,0.03-0.07V6.44c0-0.19-0.03-0.36-0.08-0.52c-0.05-0.16-0.13-0.29-0.23-0.41c-0.1-0.11-0.22-0.2-0.37-0.26    c-0.15-0.06-0.32-0.09-0.51-0.09c-0.18,0-0.35,0.03-0.5,0.09c-0.15,0.06-0.28,0.14-0.39,0.25c-0.11,0.11-0.19,0.24-0.25,0.39    c-0.06,0.15-0.09,0.32-0.09,0.5c0,0.19,0.03,0.36,0.09,0.51c0.06,0.15,0.14,0.28,0.24,0.39c0.1,0.11,0.23,0.19,0.38,0.25    c0.15,0.06,0.31,0.09,0.5,0.09C32.92,7.62,33.06,7.61,33.18,7.57z M31.26,7.59c0.03-0.01,0.05-0.04,0.05-0.1V7.17    c0-0.06-0.02-0.09-0.07-0.09h-0.09c-0.06,0-0.1-0.01-0.13-0.03c-0.03-0.02-0.06-0.05-0.07-0.09c-0.01-0.04-0.02-0.1-0.03-0.17    c0-0.07-0.01-0.16-0.01-0.26V5.74h0.32c0.07,0,0.1-0.03,0.1-0.1v-0.3c0-0.07-0.03-0.1-0.1-0.1H30.9V4.72c0-0.07-0.03-0.1-0.1-0.1    h-0.48c-0.07,0-0.1,0.03-0.1,0.1v0.52h-0.25c-0.07,0-0.1,0.03-0.1,0.1v0.3c0,0.07,0.03,0.1,0.1,0.1h0.25v1.05    c0,0.16,0.01,0.3,0.04,0.41c0.03,0.11,0.08,0.19,0.15,0.25c0.07,0.06,0.16,0.1,0.27,0.13c0.11,0.02,0.25,0.04,0.42,0.04    C31.17,7.61,31.22,7.6,31.26,7.59z M28.19,7.09c-0.06-0.05-0.1-0.11-0.1-0.2c0-0.11,0.05-0.18,0.16-0.23    c0.11-0.05,0.29-0.09,0.54-0.12l0.12-0.01l0,0.04v0.04c0,0.18-0.04,0.31-0.11,0.41c-0.08,0.1-0.19,0.14-0.35,0.14    C28.34,7.16,28.25,7.13,28.19,7.09z M28.5,7.57c0.08-0.02,0.14-0.04,0.2-0.07c0.06-0.03,0.11-0.06,0.15-0.1    c0.04-0.04,0.08-0.07,0.12-0.11c0,0.03,0,0.06,0,0.08l0.01,0.08c0,0.06,0.04,0.1,0.11,0.1h0.41c0.06,0,0.09-0.03,0.09-0.08l0-0.03    L29.58,7.4c-0.01-0.08-0.01-0.16-0.02-0.25c0-0.09,0-0.17,0-0.24v-0.7c0-0.2-0.02-0.36-0.06-0.5c-0.04-0.13-0.11-0.24-0.19-0.32    c-0.09-0.08-0.19-0.14-0.32-0.17c-0.13-0.03-0.27-0.05-0.44-0.05c-0.3,0-0.53,0.06-0.7,0.18c-0.17,0.12-0.28,0.28-0.33,0.48    L27.5,5.89c0,0.05,0.03,0.07,0.1,0.07h0.46c0.06,0,0.09-0.03,0.11-0.09c0.02-0.08,0.06-0.14,0.12-0.18    c0.06-0.04,0.14-0.06,0.24-0.06c0.13,0,0.23,0.04,0.28,0.12c0.06,0.08,0.09,0.2,0.09,0.35c-0.02,0-0.05,0-0.09,0    c-0.04,0-0.07,0.01-0.11,0.01c-0.16,0.01-0.33,0.04-0.48,0.07c-0.16,0.03-0.3,0.08-0.42,0.14c-0.12,0.06-0.22,0.14-0.3,0.23    c-0.08,0.1-0.11,0.21-0.11,0.35c0,0.11,0.02,0.21,0.06,0.29c0.04,0.09,0.1,0.16,0.17,0.22c0.07,0.06,0.16,0.1,0.26,0.13    c0.1,0.03,0.22,0.05,0.34,0.05C28.33,7.6,28.42,7.59,28.5,7.57z M25.42,7.55c0.07,0,0.1-0.03,0.1-0.1V6.37    c0-0.21,0.04-0.37,0.11-0.48c0.07-0.11,0.18-0.17,0.33-0.17c0.15,0,0.25,0.06,0.3,0.18c0.05,0.12,0.08,0.3,0.08,0.53v1.02    c0,0.07,0.03,0.1,0.1,0.1h0.48c0.07,0,0.1-0.03,0.1-0.1V6.37c0-0.07,0-0.14,0-0.21c0-0.07-0.01-0.14-0.02-0.21    c-0.01-0.07-0.02-0.14-0.04-0.2c-0.02-0.06-0.04-0.13-0.07-0.18c-0.07-0.12-0.16-0.21-0.28-0.27c-0.12-0.06-0.26-0.1-0.41-0.1    c-0.1,0-0.18,0.01-0.26,0.03c-0.08,0.02-0.14,0.05-0.2,0.08c-0.06,0.04-0.11,0.08-0.15,0.12c-0.04,0.05-0.07,0.09-0.1,0.14V5.34    c0-0.07-0.03-0.1-0.1-0.1h-0.45c-0.07,0-0.1,0.03-0.1,0.1v2.11c0,0.07,0.03,0.1,0.1,0.1H25.42z M22.77,6.9    c-0.09-0.12-0.13-0.29-0.13-0.5c0-0.21,0.05-0.38,0.14-0.5C22.86,5.77,23,5.7,23.17,5.7c0.18,0,0.31,0.06,0.4,0.19    c0.09,0.13,0.13,0.3,0.13,0.5c0,0.21-0.04,0.38-0.13,0.5c-0.09,0.12-0.22,0.18-0.4,0.18S22.86,7.02,22.77,6.9z M23.69,7.53    c0.15-0.06,0.29-0.14,0.39-0.25c0.11-0.11,0.19-0.24,0.25-0.39c0.06-0.15,0.09-0.32,0.09-0.5c0-0.18-0.03-0.35-0.09-0.5    c-0.06-0.15-0.15-0.28-0.26-0.39c-0.11-0.11-0.24-0.19-0.39-0.25c-0.15-0.06-0.32-0.09-0.51-0.09c-0.19,0-0.35,0.03-0.51,0.09    c-0.15,0.06-0.28,0.14-0.39,0.25c-0.11,0.11-0.19,0.24-0.25,0.39c-0.06,0.15-0.09,0.32-0.09,0.5c0,0.18,0.03,0.35,0.09,0.5    c0.06,0.15,0.14,0.28,0.25,0.39c0.11,0.11,0.24,0.19,0.39,0.25s0.33,0.09,0.52,0.09C23.36,7.62,23.53,7.59,23.69,7.53z     M19.58,6.94V5.01h0.29c0.17,0,0.31,0.02,0.43,0.06c0.19,0.06,0.33,0.16,0.42,0.31c0.1,0.15,0.15,0.35,0.15,0.59    c0,0.26-0.05,0.46-0.15,0.61c-0.1,0.15-0.24,0.25-0.42,0.3c-0.12,0.04-0.28,0.06-0.47,0.06H19.58z M19.64,7.55    c0.14,0,0.28,0,0.41-0.01c0.13,0,0.25-0.02,0.36-0.03c0.11-0.02,0.22-0.04,0.31-0.08c0.1-0.04,0.19-0.08,0.28-0.15    c0.1-0.05,0.18-0.13,0.26-0.22c0.08-0.09,0.15-0.2,0.2-0.32c0.06-0.12,0.1-0.24,0.13-0.38c0.03-0.14,0.04-0.27,0.04-0.41    c0-0.24-0.04-0.46-0.11-0.65c-0.07-0.19-0.17-0.35-0.31-0.48c-0.13-0.13-0.3-0.23-0.48-0.31c-0.19-0.07-0.4-0.11-0.63-0.12    c-0.03,0-0.06,0-0.1,0c-0.04,0-0.08,0-0.12,0c-0.04,0-0.08,0-0.12,0c-0.04,0-0.07,0-0.1,0h-0.68c-0.07,0-0.1,0.03-0.1,0.1v2.95    c0,0.07,0.03,0.1,0.1,0.1H19.64z"></path>
    </g>
  </g>
</svg>
